# xmcd CD database file
#
# Track frame offsets:
#	183
#	14683
#	23758
#	36345
#	48908
#	58370
#	78283
#	93195
#	103158
#	113583
#	125508
#
# Disc length: 1938 seconds
#
# Revision: 0
# Processed by: cddbd v1.5.1PL0 Copyright (c) Steve Scherf et al.
# Submitted via: CDex 1.51
#
DISCID=8b07900b
DTITLE=Liuba Maria Hevia - Habaneras en el tiempo
DYEAR=2000
DGENRE=Salsa
TTITLE0=Veinte años
TTITLE1=Tengo mi hmaca tendida
TTITLE2=La rosa roja
TTITLE3=La presa
TTITLE4=Habaneras en el tiempo
TTITLE5=en el claro de luna
TTITLE6=Trovada en la Habana
TTITLE7=Yo soy guajira
TTITLE8=El expatriado
TTITLE9=Mariposita de primavera
TTITLE10=Habaneras de Cadiz
EXTD=YEAR: 2000
EXTT0=
EXTT1=
EXTT2=
EXTT3=
EXTT4=
EXTT5=
EXTT6=
EXTT7=
EXTT8=
EXTT9=
EXTT10=
PLAYORDER=
